<svg xmlns="http://www.w3.org/2000/svg" viewBox="0 0 24 24"><path fill="currentColor" fill-rule="evenodd" d="M5.788 14.02a1 1 0 0 0 .132.031a456 456 0 0 1 .844 2.002c.503 1.202 1.01 2.44 1.121 2.796c.139.438.285.736.445.94c.083.104.178.196.29.266a1 1 0 0 0 .186.088c.32.12.612.07.795.009a1.3 1.3 0 0 0 .304-.15L9.91 20l2.826-1.762l3.265 2.502q.072.055.156.093c.392.17.772.23 1.13.182c.356-.05.639-.199.85-.368a2 2 0 0 0 .564-.728l.009-.022l.003-.008l.002-.004v-.002l.001-.001a1 1 0 0 0 .04-.133l2.98-15.025a1 1 0 0 0 .014-.146c0-.44-.166-.859-.555-1.112c-.334-.217-.705-.227-.94-.209c-.252.02-.486.082-.643.132a4 4 0 0 0-.26.094l-.011.005l-16.714 6.556l-.002.001a2 2 0 0 0-.167.069a2.5 2.5 0 0 0-.38.212c-.227.155-.75.581-.661 1.285c.07.56.454.905.689 1.071c.128.091.25.156.34.199c.04.02.126.054.163.07l.01.003zm14.138-9.152h-.002l-.026.011l-16.734 6.565l-.026.01l-.01.003a1 1 0 0 0-.09.04a1 1 0 0 0 .086.043l3.142 1.058a1 1 0 0 1 .16.076l10.377-6.075l.01-.005a2 2 0 0 1 .124-.068c.072-.037.187-.091.317-.131c.09-.028.357-.107.645-.014a.85.85 0 0 1 .588.689a.84.84 0 0 1 .003.424c-.07.275-.262.489-.437.653c-.15.14-2.096 2.016-4.015 3.868l-2.613 2.52l-.465.45l5.872 4.502a.54.54 0 0 0 .251.04a.23.23 0 0 0 .117-.052a.5.5 0 0 0 .103-.12l.002-.001l2.89-14.573a2 2 0 0 0-.267.086zm-8.461 12.394l-1.172-.898l-.284 1.805zm-2.247-2.68l1.165-1.125l2.613-2.522l.973-.938l-6.52 3.817l.035.082a339 339 0 0 1 1.22 2.92l.283-1.8a.75.75 0 0 1 .231-.435" clip-rule="evenodd"/></svg>