<svg xmlns="http://www.w3.org/2000/svg" viewBox="0 0 1918.73 786.46">
  <g>
    <g>
      <g>
        <path class="cls-1"
              d="M89.72,756.9a274.91,274.91,0,0,1-37.57-28.25C2.74,677.78-14,606.63,12.51,541c12.52-31,33.41-57,56-81.78a1133.41,1133.41,0,0,0,77.86-95.94q9.1-12.76,18-25.67c-17.43,37.48-36.15,74.31-56.7,110.16-17.19,30-32.59,61-41.36,94.16C47.29,613.7,52,690.87,89.72,756.9Z"/>
        <path class="cls-1"
              d="M181.09,786.46a313,313,0,0,1-48.65-10.32C110,698.44,109.28,617,121.31,538c11.73-77,71.43-244,76.9-252.85C191.64,366.61,181.8,448,177.92,529.49,173.84,615,174.11,701,181.09,786.46Z"/>
        <path class="cls-1"
              d="M281.93,775.42a311.83,311.83,0,0,1-48.51,10.8c7.73-85.41,6.61-171.31,2-256.73-4.35-81.38-14.07-162.61-21-243.93,5.49,8.83,65.39,175.26,77.58,252C304.54,616.42,305.07,697.9,281.93,775.42Z"/>
        <path class="cls-1"
              d="M360.31,728.53a282.36,282.36,0,0,1-35.87,27.23c38.21-65.86,42-143.07,22.54-214.68-8.94-32.88-24.22-63.73-41.34-93.46Q274.77,394,248.42,338q8.91,12.9,18,25.63a1183.74,1183.74,0,0,0,77.94,95.69c22.33,24.63,43.31,50.59,55.56,81.16C426.33,606.23,410.56,677.07,360.31,728.53Z"/>
        <path class="cls-2"
              d="M575.6,457.21V426h17.68l14.06,22.15q4.83,7.53,10,15.46t10.72,16.59h38.43q-3.81-5.67-8.81-13T647.42,452q-5.25-7.78-9.89-14.58L624.32,418a43.6,43.6,0,0,0,9-3.5,36.28,36.28,0,0,0,16-16,50.7,50.7,0,0,0,5-22.78q0-16-6.44-25.24T629,337.22q-12.42-4-30.35-4H542.32V480.19H575.6Zm22-97.37a42.42,42.42,0,0,1,7.78.72,18.09,18.09,0,0,1,7,2.88,15,15,0,0,1,5,6,23.57,23.57,0,0,1,1.86,10.15q0,8.46-2.89,13.29a15.67,15.67,0,0,1-8.5,6.86,41.69,41.69,0,0,1-13.86,2H575.6V359.84Z"/>
        <path class="cls-2"
              d="M741.19,398.53v43.53a45.48,45.48,0,0,1-5.46,6.75,24.46,24.46,0,0,1-6.65,4.85,17.62,17.62,0,0,1-7.88,1.8q-7.73,0-10.72-4.59t-3-13.54v-60.9l-30.81.92v69.14q0,18.15,7.94,27.31T708,483a36.79,36.79,0,0,0,14.48-2.73,40.36,40.36,0,0,0,11.33-7.11,52.49,52.49,0,0,0,8.3-9.32h2.68l1.33,16.38H772V377.35H741.19Z"/>
        <path class="cls-2"
              d="M859.25,426.45A106.43,106.43,0,0,0,841,420a74.06,74.06,0,0,1-10.82-3.66,11.85,11.85,0,0,1-5.05-3.7,8.2,8.2,0,0,1-1.34-4.69,8.06,8.06,0,0,1,1.54-5.15,8.67,8.67,0,0,1,4.28-2.84,19.78,19.78,0,0,1,6-.88,44,44,0,0,1,8.4,1,74.54,74.54,0,0,1,10.66,3,53.45,53.45,0,0,1,10.31,5l2.06-26.27a79.22,79.22,0,0,0-9.64-3.45,90.83,90.83,0,0,0-12.72-2.74,101.66,101.66,0,0,0-14.64-1q-17.52,0-27.66,8.6t-10.15,24.16q0,9,3.19,14.74a24.75,24.75,0,0,0,9.48,9.43,61.48,61.48,0,0,0,15.46,6q8.13,2.07,12.83,3.66a19.46,19.46,0,0,1,6.69,3.45,6.18,6.18,0,0,1,2,4.75c0,2.67-.61,4.68-1.85,6a9.93,9.93,0,0,1-5.15,2.79,33,33,0,0,1-7.42.77,61.34,61.34,0,0,1-11.6-1.14,69.59,69.59,0,0,1-11.54-3.24,60.13,60.13,0,0,1-10.15-4.89l-2,26.06a61.06,61.06,0,0,0,10.09,3.66A91.93,91.93,0,0,0,815.05,482a116.16,116.16,0,0,0,14.53.87q15.45,0,25.09-4.17T868.79,467a33.71,33.71,0,0,0,4.48-17.46q0-8.87-3.45-14.23A25.4,25.4,0,0,0,859.25,426.45Z"/>
        <path class="cls-2"
              d="M930.11,458.3a33,33,0,0,1-7.42.77,61.34,61.34,0,0,1-11.6-1.14,69.59,69.59,0,0,1-11.54-3.24,60.13,60.13,0,0,1-10.15-4.89l-1.95,26.06a61.06,61.06,0,0,0,10.09,3.66A91.63,91.63,0,0,0,910.22,482a116.16,116.16,0,0,0,14.53.87q15.45,0,25.09-4.17T964,467a33.62,33.62,0,0,0,4.49-17.46q0-8.87-3.46-14.23a25.31,25.31,0,0,0-10.56-8.81A106.43,106.43,0,0,0,936.19,420a73.64,73.64,0,0,1-10.82-3.66,11.85,11.85,0,0,1-5-3.7A8.2,8.2,0,0,1,919,408a8.06,8.06,0,0,1,1.54-5.15A8.67,8.67,0,0,1,924.8,400a19.78,19.78,0,0,1,6-.88,44,44,0,0,1,8.39,1,74.29,74.29,0,0,1,10.67,3,53.08,53.08,0,0,1,10.3,5l2.06-26.27a78.4,78.4,0,0,0-9.63-3.45,90.67,90.67,0,0,0-12.73-2.74,101.52,101.52,0,0,0-14.63-1q-17.52,0-27.67,8.6t-10.14,24.16q0,9,3.19,14.74a24.75,24.75,0,0,0,9.48,9.43,61.48,61.48,0,0,0,15.46,6q8.13,2.07,12.82,3.66a19.42,19.42,0,0,1,6.7,3.45,6.18,6.18,0,0,1,2,4.75q0,4-1.85,6A9.93,9.93,0,0,1,930.11,458.3Z"/>
        <path class="cls-2" d="M986.49,391.83v88.36h30.81V376.43l-30.81.92Z"/>
        <path class="cls-2"
              d="M988,357.42q5.1,4.06,13.65,4.07,8.86,0,13.92-4.07t5-13.24q0-7.85-5-12.42t-13.76-4.59q-8.76,0-13.86,4.38t-5.1,12.63Q982.88,353.35,988,357.42Z"/>
        <path class="cls-2"
              d="M1126.56,462.52V411.15q0-13-4.84-21a28.48,28.48,0,0,0-14-11.8q-9.12-3.75-22-3.76a121.44,121.44,0,0,0-13.24.72q-6.45.72-12.21,1.91t-10.72,2.63q-5,1.44-8.76,2.78l1.44,26.28a84.34,84.34,0,0,1,9.64-4q4.78-1.65,9.27-2.78a76.67,76.67,0,0,1,8.6-1.7,56,56,0,0,1,7.63-.57,41.15,41.15,0,0,1,11.18,1.34,13,13,0,0,1,7.16,4.68q2.48,3.36,2.27,9.33l-28.65,4.43a73.38,73.38,0,0,0-11.38,2.89,36.9,36.9,0,0,0-10.72,5.67,28.38,28.38,0,0,0-8,9.63q-3.09,5.93-3.09,14.68a32.82,32.82,0,0,0,3.71,16A26.25,26.25,0,0,0,1050.21,479a30.89,30.89,0,0,0,15.45,3.71,34.1,34.1,0,0,0,23.29-8.5,46,46,0,0,0,7-7.67h2.37l2,13.7h26.27Zm-29.37-17.67a31.37,31.37,0,0,1-5.35,7.47,23.28,23.28,0,0,1-6.7,4.84,16.71,16.71,0,0,1-7.21,1.7,13.8,13.8,0,0,1-8.09-2.47q-3.55-2.47-3.56-8.35a13.18,13.18,0,0,1,1.5-6.44,12.33,12.33,0,0,1,4.17-4.48,17.6,17.6,0,0,1,6.39-2.47c4.33-.9,7.71-1.63,10.15-2.22a40.32,40.32,0,0,0,5.56-1.65,13.65,13.65,0,0,0,3.14-1.7Z"/>
        <path class="cls-2"
              d="M1214.29,437.33v42.86H1245V411q0-18.13-7.94-27.26t-23.39-9.12a37.86,37.86,0,0,0-14.68,2.68,40.66,40.66,0,0,0-11.39,7.06,53.2,53.2,0,0,0-8.45,9.43h-2.57l-1.34-17.93-25.87,1.54V480.19h30.81V416a38,38,0,0,1,5.47-6.74,25.46,25.46,0,0,1,6.8-4.85,18.37,18.37,0,0,1,8.14-1.8q7.73,0,10.71,4.59t3,13.65Z"/>
        <path class="cls-2"
              d="M652.83,552.1a58.08,58.08,0,0,0-22.1-14.22Q617.64,533,600.84,533H542.42V680h50.9q21.54,0,36.48-5.67t24.06-15.76A62.06,62.06,0,0,0,667.15,635a97.4,97.4,0,0,0,4.18-29q0-17.41-4.74-31A62.17,62.17,0,0,0,652.83,552.1Zm-21,77.69a34.65,34.65,0,0,1-13.45,16.9q-9.31,6.18-25.19,6.18h-16.9V560.13H595a47.63,47.63,0,0,1,18.45,3.25,32.54,32.54,0,0,1,12.72,9.27A39.37,39.37,0,0,1,633.56,587a72.81,72.81,0,0,1-1.7,42.76Z"/>
        <path class="cls-2"
              d="M749.68,574.35A33.14,33.14,0,0,0,740,575.9a26.47,26.47,0,0,0-9.89,5.92q-4.85,4.39-8.86,12.73h-2.58l-1.34-19-25.86,1.54V680h30.81V622.16a31.82,31.82,0,0,1,4.33-8.55,21,21,0,0,1,5.35-5.15,17.23,17.23,0,0,1,5.93-2.47,29.79,29.79,0,0,1,5.92-.62q3.62,0,6.81.21c2.12.13,4.53.3,7.21.51l2.68-29.88a23.81,23.81,0,0,0-5.52-1.45A39.07,39.07,0,0,0,749.68,574.35Z"/>
        <path class="cls-2"
              d="M837.78,598.31v43.54a46.53,46.53,0,0,1-5.46,6.75,24.63,24.63,0,0,1-6.65,4.84,17.62,17.62,0,0,1-7.88,1.8q-7.72,0-10.72-4.58t-3-13.55v-60.9l-30.81.92v69.15q0,18.13,7.94,27.3t23.39,9.17A36.79,36.79,0,0,0,819.08,680a40.56,40.56,0,0,0,11.33-7.1,52.9,52.9,0,0,0,8.3-9.33h2.67L842.72,680h25.87V577.13H837.78Z"/>
        <path class="cls-2"
              d="M975.17,581.46q-9.27-7.11-22.87-7.11A39.34,39.34,0,0,0,940,576.16a31.69,31.69,0,0,0-9.95,5.25,33.19,33.19,0,0,0-7.47,8.3h-2.47l-.93-14.12-27.3,1.54V720.47l30.81-.93V668.85h1.85a38,38,0,0,0,7.42,7.41,32.2,32.2,0,0,0,9.22,4.79,35.71,35.71,0,0,0,11.39,1.7q14,0,23.18-7.62a45.53,45.53,0,0,0,13.66-20,77.92,77.92,0,0,0,4.48-26.69,76.12,76.12,0,0,0-4.74-27.62A43.48,43.48,0,0,0,975.17,581.46Zm-15,60.75a23.53,23.53,0,0,1-7.06,10.35,18.19,18.19,0,0,1-12.11,4,20.09,20.09,0,0,1-7.78-1.44,18.38,18.38,0,0,1-6-4,24.92,24.92,0,0,1-4.43-6.08V610a21.48,21.48,0,0,1,4.89-5,22,22,0,0,1,6.18-3.14,22.52,22.52,0,0,1,7-1.09,18.86,18.86,0,0,1,12.11,3.82A22.87,22.87,0,0,1,960,614.8a39.23,39.23,0,0,1,2.37,13.86A40,40,0,0,1,960.13,642.21Z"/>
        <path class="cls-2"
              d="M1079,578.12q-9.12-3.76-22-3.77a121.58,121.58,0,0,0-13.24.72q-6.43.73-12.21,1.91t-10.72,2.63q-5,1.44-8.76,2.78l1.45,26.28a84.2,84.2,0,0,1,9.63-4q4.8-1.65,9.28-2.78a75.8,75.8,0,0,1,8.6-1.7,56,56,0,0,1,7.62-.57,41.1,41.1,0,0,1,11.18,1.34,13,13,0,0,1,7.17,4.69c1.64,2.23,2.4,5.34,2.26,9.32l-28.64,4.43a73.49,73.49,0,0,0-11.39,2.89,37.4,37.4,0,0,0-10.72,5.67,28.24,28.24,0,0,0-8,9.63q-3.09,5.92-3.09,14.68a32.71,32.71,0,0,0,3.71,16,26.25,26.25,0,0,0,10.3,10.46,31.05,31.05,0,0,0,15.46,3.7,34.05,34.05,0,0,0,23.28-8.5,45.61,45.61,0,0,0,7-7.67h2.37l2,13.7h26.28v-69q0-13-4.85-21A28.46,28.46,0,0,0,1079,578.12Zm-10.56,66.51a31.4,31.4,0,0,1-5.36,7.47,23.14,23.14,0,0,1-6.7,4.84,16.68,16.68,0,0,1-7.21,1.7,13.82,13.82,0,0,1-8.09-2.47q-3.55-2.48-3.55-8.35a13.21,13.21,0,0,1,1.49-6.44,12.42,12.42,0,0,1,4.17-4.48,17.74,17.74,0,0,1,6.39-2.47c4.33-.9,7.71-1.63,10.15-2.22a40.54,40.54,0,0,0,5.57-1.65,13.87,13.87,0,0,0,3.14-1.7Z"/>
        <path class="cls-2" d="M1120.65,553.38V680h30.81V526.23l-30.81,2.68Z"/>
        <path class="cls-2"
              d="M1335.39,630.31,1319,579.81q-4.43-13.39-8-24.32T1303.75,533h-43.69q-3.6,11.13-7.21,22.1t-8,24.68l-16.59,50.39q-3.81,11.74-8.09,24.84T1211.94,680h34q3.39-11.64,7-24.16c.65-2.21,1.28-4.39,1.91-6.54h52.92q.95,3.27,1.9,6.64,3.49,12.32,6.8,24.06h35l-8-24.62Q1339.41,642.46,1335.39,630.31Zm-52.55-68.53,17.72,62.14h-38.29l18.09-62.14Z"/>
        <path class="cls-2"
              d="M1478.52,598.16q-2.62,11.43-5,21.84l-6.39,28.13h-2.37l-6.39-27.61q-2.48-10.72-5-21.8t-5-21.59h-28.64q-2.48,11.14-5,21.85t-4.94,21.74l-6.29,27.41h-2.27l-6.49-27q-2.58-10.83-5.41-22.52t-5.31-22.41l-32.76.92q3.6,11.55,7.06,22.78t7,22.67l5.67,18.24q3.09,10,6.13,19.73t6,19.42h33q2.26-9.27,4.74-19.11t4.64-18.81l5.87-23.7h2.27l6,23.29q2.37,9.08,4.94,19.06t4.95,19.27H1484q3.09-9.59,6.18-19.47t6.28-19.89l5.67-18q3.61-11.34,7.16-22.67t7.17-22.78h-33.19Q1481.15,586.71,1478.52,598.16Z"/>
        <path class="cls-2"
              d="M1596.34,578.12q-9.12-3.76-22-3.77a121.58,121.58,0,0,0-13.24.72q-6.43.73-12.21,1.91t-10.72,2.63q-5,1.44-8.76,2.78l1.45,26.28a84.2,84.2,0,0,1,9.63-4q4.8-1.65,9.28-2.78a75.8,75.8,0,0,1,8.6-1.7,56,56,0,0,1,7.62-.57,41.1,41.1,0,0,1,11.18,1.34,13,13,0,0,1,7.17,4.69c1.64,2.23,2.4,5.34,2.26,9.32L1558,619.38a73.49,73.49,0,0,0-11.39,2.89,37.4,37.4,0,0,0-10.72,5.67,28.24,28.24,0,0,0-8,9.63q-3.09,5.92-3.09,14.68a32.71,32.71,0,0,0,3.71,16,26.25,26.25,0,0,0,10.3,10.46,31.05,31.05,0,0,0,15.46,3.7,34.05,34.05,0,0,0,23.28-8.5,45.61,45.61,0,0,0,7-7.67h2.37l2,13.7h26.28v-69q0-13-4.85-21A28.46,28.46,0,0,0,1596.34,578.12Zm-10.56,66.51a31.4,31.4,0,0,1-5.36,7.47,23.14,23.14,0,0,1-6.7,4.84,16.68,16.68,0,0,1-7.21,1.7,13.82,13.82,0,0,1-8.09-2.47q-3.56-2.48-3.56-8.35a13.21,13.21,0,0,1,1.5-6.44,12.42,12.42,0,0,1,4.17-4.48,17.74,17.74,0,0,1,6.39-2.47c4.33-.9,7.71-1.63,10.15-2.22a40.54,40.54,0,0,0,5.57-1.65,13.87,13.87,0,0,0,3.14-1.7Z"/>
        <path class="cls-2"
              d="M1696.18,574.35a33.14,33.14,0,0,0-9.69,1.55,26.39,26.39,0,0,0-9.89,5.92q-4.85,4.39-8.86,12.73h-2.58l-1.34-19L1638,577.13V680h30.81V622.16a31.82,31.82,0,0,1,4.33-8.55,20.87,20.87,0,0,1,5.35-5.15,17.23,17.23,0,0,1,5.93-2.47,29.79,29.79,0,0,1,5.92-.62q3.62,0,6.81.21c2.12.13,4.53.3,7.21.51l2.68-29.88a23.81,23.81,0,0,0-5.52-1.45A39.07,39.07,0,0,0,1696.18,574.35Z"/>
        <path class="cls-2"
              d="M1786.89,553.49v34.15h-2.47A29.19,29.19,0,0,0,1768.55,576a37.58,37.58,0,0,0-11.23-1.6q-13.71,0-23,7.11a43.22,43.22,0,0,0-14,19.37,76.78,76.78,0,0,0-4.69,27.62,78.63,78.63,0,0,0,4.43,26.69,45.26,45.26,0,0,0,13.6,20q9.18,7.62,23.29,7.62a36.88,36.88,0,0,0,12.11-1.9,34.6,34.6,0,0,0,10.1-5.51,42,42,0,0,0,8.29-8.87h2.17l1.85,13.5h26.07V526.23l-30.71,2.68Zm0,91.55a24.31,24.31,0,0,1-4.48,6.08,19.07,19.07,0,0,1-6.08,4,19.74,19.74,0,0,1-7.67,1.44,18.19,18.19,0,0,1-12.11-4,23.87,23.87,0,0,1-7.11-10.35,39.09,39.09,0,0,1-2.32-13.55,38.58,38.58,0,0,1,2.42-13.86,23.2,23.2,0,0,1,7.21-10.15,18.71,18.71,0,0,1,12-3.82,23.07,23.07,0,0,1,7,1.09,21.86,21.86,0,0,1,6.23,3.14,21.48,21.48,0,0,1,4.89,5Z"/>
        <path class="cls-2"
              d="M1915.27,635a25.31,25.31,0,0,0-10.56-8.81,106.27,106.27,0,0,0-18.24-6.44,75.28,75.28,0,0,1-10.81-3.65,11.78,11.78,0,0,1-5.05-3.71,8.2,8.2,0,0,1-1.34-4.69,8.06,8.06,0,0,1,1.54-5.15,8.67,8.67,0,0,1,4.28-2.84,19.78,19.78,0,0,1,6-.87,43.85,43.85,0,0,1,8.39,1,74.65,74.65,0,0,1,10.67,3,52.55,52.55,0,0,1,10.3,5l2.06-26.28a78.4,78.4,0,0,0-9.63-3.45,91,91,0,0,0-12.73-2.73,100.09,100.09,0,0,0-14.63-1q-17.52,0-27.67,8.6t-10.15,24.16q0,9,3.2,14.74a24.75,24.75,0,0,0,9.48,9.43,60.73,60.73,0,0,0,15.46,6q8.13,2.07,12.82,3.66a19.24,19.24,0,0,1,6.7,3.46,6.14,6.14,0,0,1,2,4.74q0,4-1.85,6a9.93,9.93,0,0,1-5.16,2.79,32.91,32.91,0,0,1-7.42.77,62.13,62.13,0,0,1-11.59-1.13,70.6,70.6,0,0,1-11.54-3.25,59.76,59.76,0,0,1-10.15-4.89l-2,26.06a61.53,61.53,0,0,0,10.1,3.66,90.18,90.18,0,0,0,12.68,2.48,116.16,116.16,0,0,0,14.53.87q15.45,0,25.09-4.17t14.11-11.75a33.62,33.62,0,0,0,4.49-17.46Q1918.73,640.41,1915.27,635Z"/>
        <path class="cls-2"
              d="M240.35,243.1c-7.72,11-20,18.16-33.88,18.16-13.65,0-25.78-6.93-33.52-17.68A59,59,0,0,0,162.6,277.4l43.87,0h43.88C250.35,264.29,246.61,252.33,240.35,243.1Z"/>
        <path class="cls-2"
              d="M206.56,128.69s-34.72,58.38-34.72,78.92,15.55,37.2,34.72,37.2,34.73-16.65,34.73-37.2S206.56,128.69,206.56,128.69Zm0,91.49a14,14,0,0,1-14-14c0-7.73,14-30.81,14-30.81s14,23.08,14,30.81A14,14,0,0,1,206.56,220.18Z"/>
        <path class="cls-1"
              d="M205.68,100.55l-7.24-27.18A22.33,22.33,0,0,0,182.49,57.5l-27.22-7.09,27.18-7.23a22.34,22.34,0,0,0,15.87-16L205.41,0l7.23,27.19a22.35,22.35,0,0,0,16,15.86l27.23,7.09-27.19,7.24a22.31,22.31,0,0,0-15.86,15.95Z"/>
        <path class="cls-3"
              d="M299,169.71l-5.9-22.15a18.18,18.18,0,0,0-13-12.92l-22.18-5.78L280,123A18.21,18.21,0,0,0,293,110l5.78-22.18,5.89,22.15a18.19,18.19,0,0,0,13,12.92l22.18,5.78-22.15,5.89a18.22,18.22,0,0,0-12.93,13Z"/>
        <path class="cls-4"
              d="M116,169.71l-5.89-22.15a18.21,18.21,0,0,0-13-12.92l-22.18-5.78L97.06,123A18.21,18.21,0,0,0,110,110l5.78-22.18,5.89,22.15a18.21,18.21,0,0,0,13,12.92l22.18,5.78-22.15,5.89a18.21,18.21,0,0,0-12.92,13Z"/>
      </g>
    </g>
  </g>
</svg>
