<svg xmlns="http://www.w3.org/2000/svg" viewBox="0 0 24 24"><path fill="currentColor" fill-rule="evenodd" d="M1.25 16a.75.75 0 0 1 .75-.75h20a.75.75 0 0 1 0 1.5H2a.75.75 0 0 1-.75-.75m6 6a.75.75 0 0 1 .75-.75h8a.75.75 0 0 1 0 1.5H8a.75.75 0 0 1-.75-.75" clip-rule="evenodd"/><path fill="currentColor" d="M4.25 19a.75.75 0 0 1 .75-.75h14a.75.75 0 0 1 0 1.5H5a.75.75 0 0 1-.75-.75M12 2C6.477 2 2 6.477 2 12a10 10 0 0 0 .832 4h18.336A10 10 0 0 0 22 12c0-.463-.694-.54-.933-.143a6.5 6.5 0 1 1-8.924-8.924C12.54 2.693 12.463 2 12 2" opacity="0.5"/><path fill="currentColor" d="M19.9 2.307a.483.483 0 0 0-.9 0l-.43 1.095a.48.48 0 0 1-.272.274l-1.091.432a.486.486 0 0 0 0 .903l1.091.432a.48.48 0 0 1 .272.273L19 6.81c.162.41.74.41.9 0l.43-1.095a.48.48 0 0 1 .273-.273l1.091-.432a.486.486 0 0 0 0-.903l-1.091-.432a.48.48 0 0 1-.273-.274zM16.033 8.13a.483.483 0 0 0-.9 0l-.157.399a.48.48 0 0 1-.272.273l-.398.158a.486.486 0 0 0 0 .903l.398.157c.125.05.223.148.272.274l.157.399c.161.41.739.41.9 0l.157-.4a.48.48 0 0 1 .272-.273l.398-.157a.486.486 0 0 0 0-.903l-.398-.158a.48.48 0 0 1-.272-.273z"/></svg>