<svg xmlns="http://www.w3.org/2000/svg" viewBox="0 0 24 24"><path fill="currentColor" d="M14 4h-4C6.229 4 4.343 4 3.172 5.172S2 8.229 2 12s0 5.657 1.172 6.828S6.229 20 10 20h4c3.771 0 5.657 0 6.828-1.172S22 15.771 22 12s0-5.657-1.172-6.828S17.771 4 14 4" opacity="0.5"/><path fill="currentColor" d="M13.25 9a.75.75 0 0 1 .75-.75h5a.75.75 0 0 1 0 1.5h-5a.75.75 0 0 1-.75-.75m1 3a.75.75 0 0 1 .75-.75h4a.75.75 0 0 1 0 1.5h-4a.75.75 0 0 1-.75-.75m1 3a.75.75 0 0 1 .75-.75h3a.75.75 0 0 1 0 1.5h-3a.75.75 0 0 1-.75-.75M9 11a2 2 0 1 0 0-4a2 2 0 0 0 0 4m0 6c4 0 4-.895 4-2s-1.79-2-4-2s-4 .895-4 2s0 2 4 2"/></svg>