<svg width="712" height="670" viewBox="0 0 712 670" fill="none" xmlns="http://www.w3.org/2000/svg">
<g clip-path="url(#clip0)">
<path d="M516.326 380.335V565.33L547.27 615.76L549.625 619.596H671.722L674.189 380.335H516.326Z" fill="#E6E6E6"/>
<path opacity="0.1" d="M516.326 380.335V565.33L547.27 615.76L549.169 380.335H516.326Z" fill="black"/>
<path d="M221.566 375.401V560.397L190.622 610.827L188.267 614.662H66.17L63.703 375.401H221.566Z" fill="#E6E6E6"/>
<path opacity="0.1" d="M221.566 375.401V560.397L190.622 610.827L188.723 375.401H221.566Z" fill="black"/>
<path d="M711.188 371.702V382.801H47.67V366.768L109.335 334.702H656.923L711.188 371.702Z" fill="#E6E6E6"/>
<path opacity="0.1" d="M711.188 371.702V382.801H47.67V366.768L711.188 371.702Z" fill="black"/>
<path d="M142.635 427.2H113.035L100.702 418.567H156.201L142.635 427.2Z" fill="#3F3D56"/>
<path d="M142.635 462.966H113.035L100.702 454.333H156.201L142.635 462.966Z" fill="#3F3D56"/>
<path d="M142.635 513.532H113.035L100.702 504.898H156.201L142.635 513.532Z" fill="#3F3D56"/>
<path d="M142.635 564.097H113.035L100.702 555.464H156.201L142.635 564.097Z" fill="#3F3D56"/>
<path d="M595.257 432.133H624.857L637.19 423.5H581.691L595.257 432.133Z" fill="#3F3D56"/>
<path d="M595.257 467.899H624.857L637.19 459.266H581.691L595.257 467.899Z" fill="#3F3D56"/>
<path d="M595.257 518.465H624.857L637.19 509.832H581.691L595.257 518.465Z" fill="#3F3D56"/>
<path d="M595.257 569.03H624.857L637.19 560.397H581.691L595.257 569.03Z" fill="#3F3D56"/>
<path d="M615.414 120.774H366.228C364.991 120.773 363.765 121.017 362.622 121.491C361.478 121.964 360.439 122.658 359.564 123.533C358.689 124.409 357.995 125.447 357.521 126.591C357.048 127.734 356.804 128.96 356.804 130.197V298.055C356.804 299.293 357.048 300.518 357.521 301.662C357.995 302.805 358.689 303.844 359.564 304.719C360.439 305.594 361.478 306.289 362.622 306.762C363.765 307.236 364.991 307.479 366.228 307.479H460.821L457.277 330.105C457.277 330.105 437.025 340.865 451.265 341.181C465.505 341.498 532.592 341.181 532.592 341.181C532.592 341.181 545.567 341.181 524.998 329.789L521.664 307.479H615.414C616.651 307.479 617.877 307.236 619.02 306.762C620.164 306.289 621.203 305.594 622.078 304.719C622.953 303.844 623.647 302.805 624.121 301.662C624.594 300.518 624.838 299.293 624.838 298.055V130.197C624.838 128.96 624.594 127.734 624.121 126.591C623.647 125.447 622.953 124.409 622.078 123.533C621.203 122.658 620.164 121.964 619.02 121.491C617.877 121.017 616.651 120.773 615.414 120.774Z" fill="#3F3D56"/>
<path d="M615.819 130.742H365.823V270.613H615.819V130.742Z" fill="#F2F2F2"/>
<path d="M422.76 173.044C422.76 173.984 422.439 175.556 421.826 176.644C421.199 177.746 420.732 178.054 419.798 178.054C418.719 177.892 416.691 174.763 415.305 174.616C413.584 174.616 410.009 178.216 407.063 178.216C405.356 178.216 404.729 177.892 404.262 177.584C403.328 176.952 403.022 176.012 403.022 174.763C403.022 172.412 405.196 170.385 407.836 170.385C411.264 170.385 413.584 173.823 415.305 173.676C416.691 173.676 419.492 170.855 420.892 170.855C422.293 170.546 422.76 172.089 422.76 173.044ZM417.158 159.277C415.611 158.337 414.211 157.867 412.65 156.927C411.731 156.295 410.476 154.899 409.397 153.636C408.944 155.678 408.624 156.457 407.836 157.088C406.289 158.175 405.502 158.646 404.116 159.277C403.022 159.894 397.274 163.347 397.274 170.855C397.274 178.363 403.649 183.843 410.476 183.843C417.479 183.843 423.533 178.7 423.533 171.016C423.839 163.347 418.091 159.894 417.158 159.277Z" fill="#0B77BF"/>
<path d="M490.821 127.894C491.695 127.894 492.403 127.185 492.403 126.311C492.403 125.438 491.695 124.729 490.821 124.729C489.947 124.729 489.239 125.438 489.239 126.311C489.239 127.185 489.947 127.894 490.821 127.894Z" fill="#F2F2F2"/>
<path d="M490.821 300.675C494.142 300.675 496.834 297.984 496.834 294.663C496.834 291.342 494.142 288.65 490.821 288.65C487.5 288.65 484.809 291.342 484.809 294.663C484.809 297.984 487.5 300.675 490.821 300.675Z" fill="#F2F2F2"/>
<path d="M481.452 358.269V361.434H311.202V358.902L311.436 358.269L315.632 346.877H477.971L481.452 358.269Z" fill="#3F3D56"/>
<path d="M546.97 355.171C546.659 356.497 545.489 357.896 542.843 359.219C533.35 363.965 514.046 357.953 514.046 357.953C514.046 357.953 499.173 355.421 499.173 348.776C499.59 348.49 500.026 348.231 500.477 348.001C504.468 345.889 517.702 340.678 541.167 348.221C542.896 348.764 544.44 349.776 545.628 351.144C546.154 351.662 546.55 352.296 546.783 352.996C547.016 353.696 547.08 354.442 546.97 355.171Z" fill="#3F3D56"/>
<path opacity="0.1" d="M546.97 355.171C535.35 359.624 524.992 359.956 514.363 352.573C510.343 349.602 505.476 347.999 500.477 348.001C504.468 345.889 517.702 340.678 541.167 348.221C542.896 348.764 544.44 349.776 545.628 351.144C546.154 351.662 546.55 352.296 546.783 352.996C547.016 353.696 547.08 354.442 546.97 355.171Z" fill="black"/>
<path d="M532.4 352.573C534.672 352.573 536.514 352.007 536.514 351.307C536.514 350.608 534.672 350.042 532.4 350.042C530.128 350.042 528.286 350.608 528.286 351.307C528.286 352.007 530.128 352.573 532.4 352.573Z" fill="#F2F2F2"/>
<path opacity="0.1" d="M481.452 358.269V361.434H311.202V358.902L311.436 358.269H481.452Z" fill="black"/>
<path d="M94.6614 0.31745C92.9336 0.175586 91.2034 0.56209 89.7002 1.42575C88.2242 2.43655 87.2939 4.20737 86.3443 5.85522C82.7136 12.2308 77.7984 17.7829 71.91 22.1599C67.6211 25.3019 62.1683 29.2195 62.9021 35.0126C63.2892 36.9257 63.996 38.7598 64.9927 40.438C68.9493 48.425 79.7462 54.5973 78.6842 63.7111C82.6152 57.1302 77.3572 53.8761 81.2882 47.2953C83.1603 44.1613 86.4124 40.6236 89.2388 42.5917C90.1851 43.2507 90.8066 44.4327 91.7919 45.0109C94.1432 46.3906 96.6445 43.7529 98.7258 41.8846C105.903 35.442 116.109 37.1298 125.04 39.1372C129.256 40.0848 133.887 41.3282 136.379 45.3579C139.656 50.6561 133.266 56.3782 131.651 62.3684C131.519 62.8788 131.513 63.4135 131.633 63.9269C131.753 64.4402 131.995 64.9169 132.34 65.3161C132.684 65.7153 133.12 66.0252 133.61 66.2193C134.1 66.4134 134.63 66.4858 135.154 66.4305C137.834 66.1661 141.008 65.9495 141.167 64.7736C144.539 64.8936 148.67 64.5117 150.114 61.001C150.556 59.612 150.789 58.1653 150.807 56.7079C151.337 50.8107 153.84 45.4307 155.498 39.8179C157.156 34.2052 157.877 27.6274 155.079 22.6511C154.08 20.9954 152.845 19.4944 151.413 18.1956C135.534 2.82881 114.656 0.29464 94.6614 0.31745Z" fill="#2F2E41"/>
<path d="M82.1378 75.2225C82.1378 75.2225 85.5911 104.001 72.9286 106.303C60.2662 108.606 84.44 147.744 84.44 147.744L141.997 154.651L128.183 108.605C128.183 108.605 118.974 105.152 124.73 82.1293C130.485 59.1066 82.1378 75.2225 82.1378 75.2225Z" fill="#FFB8B8"/>
<path d="M47.028 569.635L51.633 632.948H75.806L68.9 569.635H47.028Z" fill="#FFB8B8"/>
<path d="M224.303 449.917L227.756 502.869L254.233 491.358L243.872 447.615L224.303 449.917Z" fill="#FFB8B8"/>
<path d="M29.761 327.897C29.761 327.897 30.9121 394.663 37.819 416.534C44.7258 438.406 43.5747 439.557 42.4235 443.011C41.2724 446.464 40.1212 444.162 40.1212 449.917C40.1212 455.673 37.819 546.613 40.1212 554.671C42.4235 562.729 33.2144 576.542 40.1212 577.693C47.0281 578.845 79.2599 577.693 80.411 570.787C81.5621 563.88 71.2019 561.578 75.8065 556.973C80.411 552.368 87.3178 457.975 87.3178 457.975L103.434 392.361L133.363 357.826H196.676L216.245 433.801C216.245 433.801 208.187 455.673 213.943 455.673C219.699 455.673 254.233 462.58 254.233 437.255C254.233 411.93 242.721 337.106 240.419 334.804C238.117 332.501 241.57 324.444 238.117 320.99C234.663 317.537 194.373 293.363 179.409 288.758C164.444 284.154 143.451 278.673 143.451 278.673L29.761 327.897Z" fill="black"/>
<path d="M254.233 482.149C254.233 482.149 236.966 476.394 228.908 493.661C220.85 510.928 224.303 515.532 224.303 515.532C224.303 515.532 250.779 524.741 255.384 520.137C257.387 518.133 263.748 517.437 270.296 517.29C280.269 517.067 282.923 502.957 273.504 499.672C273.223 499.574 272.939 499.489 272.651 499.416C263.442 497.114 254.233 482.149 254.233 482.149Z" fill="black"/>
<path d="M108.038 94.2163C127.111 94.2163 142.572 78.7548 142.572 59.6822C142.572 40.6095 127.111 25.1481 108.038 25.1481C88.9656 25.1481 73.5042 40.6095 73.5042 59.6822C73.5042 78.7548 88.9656 94.2163 108.038 94.2163Z" fill="#FFB8B8"/>
<path d="M63.1439 120.692C63.1439 120.692 119.55 132.204 133.363 113.786C147.177 95.3674 152.933 165.587 152.933 165.587L159.839 239.259L149.479 279.549C149.479 279.549 95.3757 323.292 78.1087 326.746C60.8416 330.199 34.3655 332.501 34.3655 332.501C34.3655 332.501 42.4235 204.725 42.4235 202.423C42.4235 200.121 63.1439 120.692 63.1439 120.692Z" fill="white"/>
<path d="M80.2983 99.1032C80.2983 99.1032 67.7485 91.914 64.2951 98.8208C60.8417 105.728 28.6099 122.995 25.1565 122.995C21.7031 122.995 32.0633 218.539 27.4587 230.05C22.8542 241.562 0.982611 325.595 13.6451 332.501C26.3076 339.408 17.0985 325.595 29.761 342.862C42.4235 360.129 104.585 360.129 108.038 353.222C111.492 346.315 80.411 294.514 86.1667 246.166C91.9224 197.819 101.131 131.053 93.0735 121.844C85.0156 112.634 80.2983 99.1032 80.2983 99.1032Z" fill="#15539E"/>
<path d="M121.852 106.879L123.455 101.361C123.455 101.361 171.351 117.239 173.653 127.599C175.955 137.959 174.804 210.481 166.746 216.237C158.688 221.992 147.177 231.201 155.235 245.015C163.293 258.829 172.502 273.794 179.409 274.945C186.316 276.096 198.978 284.154 195.525 292.212C192.071 300.27 150.63 285.305 150.63 285.305C150.63 285.305 123.003 264.584 124.154 232.353C125.305 200.121 121.852 106.879 121.852 106.879Z" fill="#15539E"/>
<path d="M162.142 242.713L134.514 294.514C134.514 294.514 94.2246 335.955 117.247 340.559C140.27 345.164 152.933 302.572 152.933 302.572L182.862 259.98L162.142 242.713Z" fill="#FFB8B8"/>
<path d="M96.3438 9.35325C94.9518 9.25011 93.5575 9.52054 92.3051 10.1366C91.1726 10.9637 90.2393 12.0333 89.5733 13.2673C86.5029 17.8859 82.5005 21.8112 77.8232 24.7913C74.3318 27.0121 69.893 29.781 70.4904 33.8755C70.8146 35.2483 71.3917 36.5487 72.1922 37.7102C75.4241 43.4124 76.7108 50.0122 75.8574 56.5109L85.4575 42.5569C86.9814 40.3418 89.6287 37.8414 91.9296 39.2325C92.6999 39.6982 93.2058 40.5336 94.0079 40.9423C95.9219 41.9175 97.9581 40.0532 99.6524 38.7327C105.495 34.179 113.803 35.372 121.073 36.7908C124.505 37.4606 128.275 38.3394 130.304 41.1875C133.676 45.9206 130.155 52.7596 132.123 58.2275C132.674 57.8419 133.141 57.3495 133.498 56.7797C133.855 56.2099 134.095 55.5743 134.201 54.9104C136.946 54.9952 140.309 54.7254 141.485 52.244C141.842 51.2715 142.033 50.2456 142.049 49.2096C142.48 45.0415 144.518 41.239 145.867 37.2719C147.217 33.3049 147.804 28.6557 145.526 25.1385C144.693 23.9468 143.687 22.8855 142.542 21.9894C129.616 11.1283 112.621 9.33713 96.3438 9.35325Z" fill="#2F2E41"/>
<path d="M162.142 122.995L172.867 125.842C172.867 125.842 197.827 189.761 192.071 233.504C186.316 277.247 182.862 268.038 182.862 268.038C182.862 268.038 173.653 247.317 152.933 251.922L162.142 122.995Z" fill="#15539E"/>
<path d="M48.6229 624.581C45.847 628.353 46.4036 633.745 43.9446 637.731C41.8132 641.187 37.7963 642.998 35.1303 646.06C34.2796 647.077 33.5212 648.168 32.8641 649.32C30.391 653.463 28.3808 658.772 30.8165 662.936C32.7759 666.287 36.8943 667.596 40.6715 668.488C45.4456 669.616 50.4058 670.519 55.235 669.657C60.0642 668.795 64.7839 665.838 66.5057 661.245C66.8441 660.09 67.2464 658.954 67.7108 657.844C70.3283 652.691 78.5383 652.635 81.2171 647.514C83.0917 643.93 81.3685 639.598 79.6459 635.938L74.3848 624.761C72.6389 621.052 65.5612 623.185 61.8714 622.296C57.0592 621.137 52.0848 619.86 48.6229 624.581Z" fill="black"/>
<path d="M10.1917 265.736L58.5394 340.559C58.5394 340.559 88.4689 378.547 97.678 361.28C106.887 344.013 65.4462 315.234 65.4462 315.234L34.3655 257.678L10.1917 265.736Z" fill="#FFB8B8"/>
<path d="M34.3655 125.297L25.1564 122.995C25.1564 122.995 6.73827 128.75 2.13372 152.924C-2.47081 177.098 0.982583 273.794 6.73826 274.945C12.4939 276.096 35.1655 258.108 38.7945 261.922C42.4235 265.736 30.9121 246.166 34.3655 235.806C37.8189 225.446 34.3655 125.297 34.3655 125.297Z" fill="#15539E"/>
<path d="M467.159 176.68H437.407V183.843H467.159V176.68Z" fill="#0B77BF"/>
<path d="M570.191 176.68H559.722V183.843H570.191V176.68Z" fill="#0B77BF"/>
<path d="M591.127 176.68H580.659V183.843H591.127V176.68Z" fill="#0B77BF"/>
<path d="M548.703 176.68H477.628V183.843H548.703V176.68Z" fill="#0B77BF"/>
<path d="M429.693 222.961H399.941V230.124H429.693V222.961Z" fill="#0B77BF"/>
<path d="M532.724 222.961H522.256V230.124H532.724V222.961Z" fill="#0B77BF"/>
<path d="M553.661 222.961H543.193V230.124H553.661V222.961Z" fill="#0B77BF"/>
<path d="M511.237 222.961H440.162V230.124H511.237V222.961Z" fill="#0B77BF"/>
<path d="M552.559 192.658H522.807V199.821H552.559V192.658Z" fill="#0B77BF"/>
<path d="M592.78 192.658H563.028V199.821H592.78V192.658Z" fill="#0B77BF"/>
<path d="M410.409 192.658H399.941V199.821H410.409V192.658Z" fill="#0B77BF"/>
<path d="M431.346 192.658H420.878V199.821H431.346V192.658Z" fill="#0B77BF"/>
<path d="M512.89 192.658H441.815V199.821H512.89V192.658Z" fill="#0B77BF"/>
<path d="M490.851 208.085H461.099V215.248H490.851V208.085Z" fill="#0B77BF"/>
<path d="M450.63 208.085H420.878V215.248H450.63V208.085Z" fill="#0B77BF"/>
<path d="M410.409 208.085H399.941V215.248H410.409V208.085Z" fill="#0B77BF"/>
<path d="M592.78 208.085H582.312V215.248H592.78V208.085Z" fill="#0B77BF"/>
<path d="M571.843 208.085H500.768V215.248H571.843V208.085Z" fill="#0B77BF"/>
</g>
<defs>
<clipPath id="clip0">
<rect width="711.188" height="669.683" fill="white" transform="translate(0 0.317322)"/>
</clipPath>
</defs>
</svg>
