<svg xmlns="http://www.w3.org/2000/svg" viewBox="0 0 24 24"><path fill="currentColor" d="M14.815 2h-5.63c-1.837 0-2.756 0-3.479.444a3 3 0 0 0-.355.257c-.65.545-.942 1.416-1.523 3.16l-.036.107c-.319.955-.478 1.433-.31 1.794a1 1 0 0 0 .219.303c.289.274.793.274 1.8.274h13c1.007 0 1.51 0 1.8-.274c.09-.086.165-.19.218-.303c.168-.361.009-.839-.31-1.794l-.036-.107c-.581-1.744-.872-2.615-1.522-3.16a3 3 0 0 0-.356-.257C17.572 2 16.653 2 14.815 2"/><path fill="currentColor" d="M10.958 22h2.086c1.649 0 2.473 0 3.036-.487s.683-1.302.922-2.934L18.5 8.34h-13L7 18.58c.238 1.632.357 2.447.92 2.934S9.31 22 10.959 22" opacity="0.5"/><path fill="currentColor" d="M6.77 17h10.463l.732-5H6.037z"/></svg>