<svg xmlns="http://www.w3.org/2000/svg" viewBox="0 0 24 24"><path fill="currentColor" d="M3 10c0-3.771 0-5.657 1.172-6.828S7.229 2 11 2h2c3.771 0 5.657 0 6.828 1.172S21 6.229 21 10v4c0 3.771 0 5.657-1.172 6.828S16.771 22 13 22h-2c-3.771 0-5.657 0-6.828-1.172S3 17.771 3 14z" opacity="0.5"/><path fill="currentColor" d="M16.519 16.501c.175-.136.334-.295.651-.612l3.957-3.958c.096-.095.052-.26-.075-.305a4.3 4.3 0 0 1-1.644-1.034a4.3 4.3 0 0 1-1.034-1.644c-.045-.127-.21-.171-.305-.075L14.11 12.83c-.317.317-.476.476-.612.651q-.243.311-.412.666c-.095.2-.166.414-.308.84l-.184.55l-.292.875l-.273.82a.584.584 0 0 0 .738.738l.82-.273l.875-.292l.55-.184c.426-.142.64-.212.84-.308q.355-.17.666-.412m5.849-5.809a2.163 2.163 0 1 0-3.06-3.059l-.126.128a.52.52 0 0 0-.148.465c.02.107.055.265.12.452c.13.375.376.867.839 1.33s.955.709 1.33.839c.188.065.345.1.452.12a.53.53 0 0 0 .465-.148z"/><path fill="currentColor" fill-rule="evenodd" d="M7.25 9A.75.75 0 0 1 8 8.25h6.5a.75.75 0 0 1 0 1.5H8A.75.75 0 0 1 7.25 9m0 4a.75.75 0 0 1 .75-.75h3a.75.75 0 0 1 0 1.5H8a.75.75 0 0 1-.75-.75m0 4a.75.75 0 0 1 .75-.75h1.5a.75.75 0 0 1 0 1.5H8a.75.75 0 0 1-.75-.75" clip-rule="evenodd"/></svg>