<svg xmlns="http://www.w3.org/2000/svg" viewBox="0 0 24 24"><path fill="currentColor" d="M2 12.204c0-2.289 0-3.433.52-4.381c.518-.949 1.467-1.537 3.364-2.715l2-1.241C9.889 2.622 10.892 2 12 2s2.11.622 4.116 1.867l2 1.241c1.897 1.178 2.846 1.766 3.365 2.715S22 9.915 22 12.203v1.522c0 3.9 0 5.851-1.172 7.063S17.771 22 14 22h-4c-3.771 0-5.657 0-6.828-1.212S2 17.626 2 13.725z" opacity="0.5"/><path fill="currentColor" d="M9.447 15.398a.75.75 0 0 0-.894 1.205A5.77 5.77 0 0 0 12 17.75a5.77 5.77 0 0 0 3.447-1.147a.75.75 0 0 0-.894-1.206A4.27 4.27 0 0 1 12 16.25a4.27 4.27 0 0 1-2.553-.852"/></svg>