<svg xmlns="http://www.w3.org/2000/svg" viewBox="0 0 24 24"><path fill="currentColor" d="M2 11.25C2 8.35 4.015 6 6.5 6S11 8.35 11 11.25V20H4.233C3 20 2 18.834 2 17.395z" opacity="0.5"/><path fill="currentColor" d="M11 11.25V20h8.793C21.012 20 22 18.847 22 17.425V11.25C22 8.35 19.985 6 17.5 6h-11C8.985 6 11 8.35 11 11.25" opacity="0.8"/><path fill="currentColor" d="M9.5 20v2a.75.75 0 0 0 1.5 0v-2zm5.5 0h-1.5v2a.75.75 0 0 0 1.5 0z"/><path fill="currentColor" fill-rule="evenodd" d="M4.25 16a.75.75 0 0 1 .75-.75h3a.75.75 0 0 1 0 1.5H5a.75.75 0 0 1-.75-.75m13.135-9.415l.256-.052a2.2 2.2 0 0 1 1.24.115c.69.277 1.446.328 2.165.148l.061-.015c.524-.131.893-.618.893-1.178v-2.13c0-.738-.664-1.282-1.355-1.109c-.396.1-.812.071-1.193-.081l-.073-.03a3.5 3.5 0 0 0-2-.185l-.449.09c-.54.108-.93.6-.93 1.17v6.953c0 .397.31.719.692.719a.706.706 0 0 0 .693-.72z" clip-rule="evenodd"/></svg>