<svg xmlns="http://www.w3.org/2000/svg" viewBox="0 0 24 24"><path fill="currentColor" d="M4.892 9.614c0-.402.323-.728.722-.728H9.47c.4 0 .723.326.723.728a.726.726 0 0 1-.723.729H5.614a.726.726 0 0 1-.722-.729"/><path fill="currentColor" fill-rule="evenodd" d="M21.188 10.004q-.094-.005-.2-.004h-2.773C15.944 10 14 11.736 14 14s1.944 4 4.215 4h2.773q.106.001.2-.004c.923-.056 1.739-.757 1.808-1.737c.004-.064.004-.133.004-.197v-4.124c0-.064 0-.133-.004-.197c-.069-.98-.885-1.68-1.808-1.737m-3.217 5.063c.584 0 1.058-.478 1.058-1.067c0-.59-.474-1.067-1.058-1.067s-1.06.478-1.06 1.067c0 .59.475 1.067 1.06 1.067" clip-rule="evenodd"/><path fill="currentColor" d="M21.14 10.002c0-1.181-.044-2.448-.798-3.355a4 4 0 0 0-.233-.256c-.749-.748-1.698-1.08-2.87-1.238C16.099 5 14.644 5 12.806 5h-2.112C8.856 5 7.4 5 6.26 5.153c-1.172.158-2.121.49-2.87 1.238c-.748.749-1.08 1.698-1.238 2.87C2 10.401 2 11.856 2 13.694v.112c0 1.838 0 3.294.153 4.433c.158 1.172.49 2.121 1.238 2.87c.749.748 1.698 1.08 2.87 1.238c1.14.153 2.595.153 4.433.153h2.112c1.838 0 3.294 0 4.433-.153c1.172-.158 2.121-.49 2.87-1.238q.305-.308.526-.66c.45-.72.504-1.602.504-2.45l-.15.001h-2.774C15.944 18 14 16.264 14 14s1.944-4 4.215-4h2.773q.079 0 .151.002" opacity="0.5"/><path fill="currentColor" d="M10.101 2.572L8 3.992l-1.733 1.16C7.405 5 8.859 5 10.694 5h2.112c1.838 0 3.294 0 4.433.153q.344.045.662.114L16 4l-2.113-1.428a3.42 3.42 0 0 0-3.786 0"/></svg>