<svg width="43" height="43" fill="none" xmlns="http://www.w3.org/2000/svg">
  <path d="M6.754 2.838L1.49.41C2.142-.007 2.342 0 2.98 0h36.614c.852 0 1.413.191 2.129.614l-5.469 2.23c-.495-.267-1.13-.387-1.769-.387H8.515c-.362 0-1.081.041-1.761.38z" fill="#E1DDD9"/>
  <path d="M6.75 2.84L1.49.408C.853.818 0 1.433 0 2.866v36.858c0 .819 0 1.228.639 2.047l5.859-7.044c-.788-.824-.957-1.823-.962-2.375V4.905c0-1.065.532-1.689 1.214-2.065z" fill="#DED9D5"/>
  <path d="M6.5 34.727L.64 41.771C1.277 42.591 2.554 43 3.406 43h36.188c1.703 0 2.554-1.024 2.767-1.229l-5.86-7.044c-.391.407-1.056.9-2.018.9l-25.956.003c-1.027-.027-1.57-.456-2.026-.903z" fill="#C0BBBB"/>
  <path d="M42.361 41.771l-5.86-7.044c.762-.788.964-1.76.964-2.375V4.914c-.022-1.033-.452-1.65-1.212-2.07l5.47-2.23C42.574 1.228 43 1.843 43 2.457v37.471c0 .614-.136 1.19-.639 1.843z" fill="#DED9D5"/>
  <path d="M37.465 32.352c0 1.639-1.277 3.277-2.98 3.277H8.515c-1.703 0-2.98-1.639-2.98-3.277V4.914c0-1.638 1.277-2.457 2.98-2.457h25.97c1.703 0 2.98.82 2.98 2.457v27.438z" fill="#ECE9E8"/>
  <path d="M14.113 30.31h-1.088l-1.61-2.72v2.72H10.32v-4.37h1.095l1.606 2.719V25.94h1.092v4.37zM16.316 30.31h-1.092v-4.37h1.091v4.37zM18.785 28.683l-.45.474v1.152h-1.094V25.94h1.095v1.927l.38-.556.98-1.37h1.354l-1.535 1.932 1.535 2.436h-1.298l-.967-1.626zM22.565 29.499h1.906v.81H21.47V25.94h1.095V29.5z" fill="#555"/>
  <path d="M27.096 29.493h-1.5l-.262.816h-1.17l1.666-4.369h1.03l1.677 4.37h-1.176l-.265-.817zm-1.238-.813h.976l-.49-1.515-.486 1.515zM32.68 30.31h-1.089l-1.61-2.72v2.72h-1.094v-4.37h1.095l1.606 2.719V25.94h1.092v4.37zM21.503 7.777c.583 2.13 2.54 4.025 4.599 6.007l.01.009c3.08 2.973 6.568 6.34 6.568 11.395h-3.727c-.015-1.668-.279-3.292-1.276-4.655a29.845 29.845 0 00-4.005-4.394c-.726-.701-1.464-1.408-2.153-2.145-.626.665-1.29 1.305-1.947 1.94l-2.992 3.042-1.469 1.557c-1.078 1.582-1.064 2.607-1.078 4.655H10.32c0-5.054 3.489-8.422 6.569-11.395l.009-.01.02-.02c2.052-1.974 4.014-3.863 4.585-5.986z" fill="#555"/>
</svg>
