<svg xmlns="http://www.w3.org/2000/svg" width="290" height="290" fill="none">
  <path fill="#EAEAEA" d="M45.875 19.573 10.5 3.253C14.883.455 16.222.5 20.514.5h246.079c5.723 0 9.495 1.285 14.307 4.129L244.148 19.61c-3.327-1.79-7.599-2.596-11.891-2.596H57.712c-2.429 0-7.265.274-11.837 2.558Z"/>
  <path fill="#EAEAEB" d="M45.852 19.588 10.504 3.241C6.21 5.994.484 10.132.484 19.765V267.48c0 5.504 0 8.257 4.293 13.762l39.38-47.344c-5.298-5.54-6.432-12.256-6.466-15.961 0 0-.01-177.312-.003-184.472.006-7.16 3.578-11.348 8.164-13.877Z"/>
  <path fill="#C1C7CC" d="M44.174 233.899 4.776 281.243c4.293 5.505 12.877 8.257 18.6 8.257h243.217c11.446 0 17.169-6.881 18.599-8.257L245.81 233.9c-2.634 2.731-7.103 6.05-13.57 6.05l-174.446.015c-6.902-.176-10.552-3.062-13.62-6.066Z"/>
  <path fill="#D3D7DC" d="m285.192 281.241-39.387-47.342c5.123-5.301 6.481-11.835 6.481-15.963V33.526c-.15-6.939-3.042-11.093-8.146-13.915L280.9 4.626c5.723 4.129 8.584 8.257 8.584 12.386v251.843c0 4.128-.914 8-4.292 12.386Z"/>
  <path fill="#F3F3F3" d="M252.286 217.938c0 11.01-8.584 22.019-20.029 22.019H57.712c-11.445 0-20.03-11.009-20.03-22.019V33.528c0-11.009 8.585-16.513 20.03-16.513h174.545c11.445 0 20.029 5.504 20.029 16.514v184.409Z"/>
  <path fill="#1976D2" d="M95.338 204.205h-7.317l-10.818-18.271v18.271h-7.359v-29.362h7.36L88 193.114v-18.271h7.337v29.362ZM110.14 204.205h-7.338v-29.362h7.338v29.362ZM126.738 193.275l-3.019 3.186v7.744h-7.359v-29.362h7.359v12.947l2.557-3.731 6.583-9.216h9.099l-10.315 12.987 10.315 16.375h-8.721l-6.499-10.93ZM152.141 198.76h12.809v5.445h-20.168v-29.362h7.359v23.917Z"/>
  <path fill="#1976D2" d="M182.596 198.72h-10.084l-1.761 5.485h-7.862l11.195-29.362h6.919l11.279 29.362h-7.904l-1.782-5.485Zm-8.323-5.465h6.562l-3.291-10.184-3.271 10.184ZM220.124 204.205h-7.317l-10.818-18.271v18.271h-7.359v-29.362h7.359l10.798 18.271v-18.271h7.337v29.362ZM145.002 52.767c3.922 14.317 17.078 27.052 30.912 40.372l.063.06c20.699 19.982 44.147 42.618 44.147 76.588h-25.046c-.102-11.212-1.875-22.127-8.575-31.285a200.619 200.619 0 0 0-26.918-29.531c-4.885-4.715-9.841-9.465-14.476-14.421-4.207 4.474-8.664 8.776-13.085 13.044l-20.108 20.445-9.869 10.463c-7.245 10.635-7.156 17.518-7.245 31.285H69.844c0-33.97 23.449-56.606 44.148-76.588l.063-.06.139-.134c13.783-13.271 26.971-25.969 30.808-40.238Z"/>
</svg>
