<?xml version="1.0" encoding="UTF-8"?>
<svg width="256" height="256" version="1.1"
     xmlns="http://www.w3.org/2000/svg"
     xmlns:xlink="http://www.w3.org/1999/xlink">
  <defs>
    <linearGradient id="Gradient" x1="0" x2="0" y1="0" y2="1">
      <stop offset="0%" style="stop-color:#3584E4;stop-opacity:1" />
      <stop offset="100%" style="stop-color:#1C71D8;stop-opacity:1" />
    </linearGradient>
    <filter id="alpha-to-white">
      <feColorMatrix in="SourceGraphic" type="matrix"
                     values="0 0 0 0 1 0 0 0 0 1 0 0 0 0 1 0 0 0 1 0"/>
    </filter>
    <g id="child-svg"><svg xmlns="http://www.w3.org/2000/svg" height="48" viewBox="0 -960 960 960" width="48"><path d="M140-260v-440 440Zm0 60q-24 0-42-18.5T80-260v-440q0-24 18-42t42-18h680q24 0 42 18t18 42v267q-14-10-28.603-18.161Q836.794-459.323 820-465v-235H140v440h346q-1 8-1 14.951V-215q0 7 1 15H140Zm160-185v60h203q7-17 16-31.5t20-28.5H300Zm-97-125v60h60v-60h-60Zm124 0v60h60v-60h-60Zm123 0v60h60v-60h-60Zm124 0v60h42q5-2 9.225-4.528Q629.45-457.056 634-459v-51h-60Zm123 0v33q9-2 17.867-2.5 8.866-.5 19.133-.5h12q6 0 11 1v-31h-60ZM203-635v60h60v-60h-60Zm124 0v60h60v-60h-60Zm123 0v60h60v-60h-60Zm124 0v60h60v-60h-60Zm123 0v60h60v-60h-60Zm37 551-42-42 73-74H584v-60h181l-73-74 42-42 146 146L734-84Z" /></svg></g>
  </defs>
  <rect
      width="256"
      height="256"
      fill="url(#Gradient)"
      ry="0"
      x="0"
      y="0" />
  <use xlink:href="#child-svg" filter="url(#alpha-to-white)"
       transform="matrix(2.6666666666666665,0,0,2.6666666666666665,64,64)" />
</svg>
