<svg xmlns="http://www.w3.org/2000/svg" viewBox="0 0 64 64"><path fill="var(--logo-fill-1, #CCC)" d="M10.052 4.224 2.218.61C3.188-.01 3.485 0 4.436 0H58.93c1.267 0 2.102.284 3.168.914L53.96 4.232c-.737-.396-1.683-.575-2.633-.575H12.673c-.538 0-1.609.06-2.621.567Z"/><path fill="var(--logo-fill-1, #CCC)" d="M10.047 4.227 2.219.607C1.269 1.217 0 2.133 0 4.267v54.856c0 1.22 0 1.83.95 3.048l8.722-10.484c-1.174-1.227-1.425-2.714-1.433-3.535 0 0-.002-39.266 0-40.852.001-1.585.792-2.513 1.808-3.073Z"/><path fill="var(--logo-fill-2, #DDD)" d="M9.675 51.687.951 62.171C1.9 63.391 3.802 64 5.07 64h53.86c2.535 0 3.803-1.524 4.12-1.829l-8.722-10.484c-.583.605-1.573 1.34-3.005 1.34l-38.631.003c-1.529-.039-2.337-.678-3.017-1.343Z"/><path fill="var(--logo-fill-2, #DDD)" d="m63.05 62.17-8.723-10.483c1.135-1.174 1.436-2.62 1.436-3.535V7.314c-.034-1.537-.674-2.457-1.804-3.082l8.14-3.318C63.367 1.828 64 2.742 64 3.657v55.771c0 .914-.202 1.772-.95 2.743Z"/><path fill="var(--logo-fill-3, #ECECEC)" d="M55.763 48.152c0 2.438-1.901 4.877-4.436 4.877H12.673c-2.534 0-4.435-2.439-4.435-4.877V7.314c0-2.438 1.9-3.657 4.435-3.657h38.654c2.535 0 4.436 1.22 4.436 3.657v40.838Z"/><path fill="var(--logo-fill-4, #111)" d="M21.006 45.111h-1.62l-2.396-4.046v4.046h-1.63V38.61h1.63l2.39 4.046v-4.046h1.626v6.502ZM24.283 45.111h-1.625V38.61h1.625v6.502ZM27.959 42.69l-.668.706v1.715h-1.63V38.61h1.63v2.867l.566-.826 1.458-2.041h2.015l-2.284 2.876 2.284 3.626h-1.932l-1.439-2.42ZM33.585 43.905h2.836v1.206h-4.466V38.61h1.63v5.296Z"/><path fill="var(--logo-fill-4, #111)" d="M40.33 43.897h-2.234l-.39 1.214h-1.741l2.48-6.502h1.531l2.498 6.502h-1.75l-.395-1.214Zm-1.844-1.21h1.453l-.729-2.256-.724 2.255ZM48.64 45.111h-1.62l-2.396-4.046v4.046h-1.63V38.61h1.63l2.39 4.046v-4.046h1.626v6.502ZM32.004 11.575c.868 3.17 3.782 5.99 6.845 8.94l.014.014c4.584 4.425 9.777 9.437 9.777 16.96h-5.547c-.022-2.483-.415-4.9-1.899-6.928a44.426 44.426 0 0 0-5.96-6.54c-1.083-1.044-2.18-2.096-3.206-3.193-.932.99-1.92 1.943-2.898 2.888l-4.453 4.528-2.186 2.317c-1.604 2.355-1.584 3.88-1.604 6.928H15.36c0-7.523 5.193-12.535 9.777-16.96l.013-.014.031-.03c3.053-2.938 5.973-5.75 6.823-8.91Z"/></svg>
